Love for All and Sharing is the first step to solving all the problems of humanity.

Website I want to share. 
               
   http://www.scenetime.com
 
 
  Credit to EVERYONE for sharing and seeding back
 especially to SCENETIME.COM where i get all my 
 downloads.


 support www.scenetime.com to grow faster.

                             
                                                            
                                                   

.                 ..................................NFO:....................................Size: 700MB
		
Resolution: 640x272

IMDB: http://www.imdb.com/title/tt0817948/	
	
Frame Rate: 23.976 fps
Format: DVDRip
Audio Quality: 10
Video Quality: 10
Video Codec: XviD
Audio Codec: MP3
Language: Eng
Source: DVD9
Release: zamengo (ZMG)

Vdeo
ID                               : 0
Format                           : MPEG-4 Visual
Format profile                   : Advanced Simple@L5
Format settings, BVOP            : Sim
Format settings, QPel            : No
Format settings, GMC             : Sem warppoints
Format settings, Matrix          : Default (H.263)
Muxing mode                      : Packed bitstream
Codec ID                         : XVID
Codec ID/Hint                    : XviD
Duration                         : 1h 47mn
Bit rate                         : 771 Kbps
Width                            : 640 pixels
Height                           : 272 pixels
Display aspect ratio             : 2.35:1
Frame rate                       : 23.976 fps
Color space                      : YUV
Chroma subsampling               : 4:2:0
Bit depth                        : 8 bits
Scan type                        : Progressivo
Bits/(Pixel*Frame)               : 0.185
Stream size                      : 593 MiB (85%)
Writing library                  : XviD 1.2.0.dev47 (UTC 2006-11-01)


udio
ID                               : 1
Format                           : MPEG Audio
Format version                   : Version 1
Format profile                   : Layer 3
Mode                             : Joint stereo
Mode extension                   : MS Stereo
Codec ID                         : 55
Codec ID/Hint                    : MP3
Duration                         : 1h 47mn
Bit rate mode                    : Constante
Bit rate                         : 128 Kbps
Channel(s)                       : 2 canais
Sampling rate                    : 48.0 KHz
Stream size                      : 98.5 MiB (14%)
Alignment                        : Alinhado intercalado
Interleave, duration             : 42 ms (1.00 quadro de vdeo)
Interleave, preload duration     : 504 ms
Writing library                  : LAME3.97 
Encoding settings                : -m j -V 4 -q 2 -lowpass 17 -b 128


Screens:

[img]http://img838.imageshack.us/img838/5295/25748650.png[/img]
[img]http://img830.imageshack.us/img830/6765/90382304.png[/img]
[img]http://img829.imageshack.us/img829/4876/66818713.png[/img]
[img]http://img840.imageshack.us/img840/7541/66421811.png[/img]
[img]http://img840.imageshack.us/img840/9112/98167920.png[/img]
[img]http://img829.imageshack.us/img829/2596/26437501.png[/img]
[img]http://img833.imageshack.us/img833/5787/27568450.png[/img]
[img]http://img838.imageshack.us/img838/9069/20130978.png[/img]
[img]http://img828.imageshack.us/img828/8421/92072927.png[/img]
[img]http://img827.imageshack.us/img827/1822/19476504.png[/img]